<svg xmlns="http://www.w3.org/2000/svg" xmlns:xlink="http://www.w3.org/1999/xlink" viewBox="0 0 111.65 47.01"><defs><style>.cls-1{fill:none;}.cls-2{fill:#231f20;}.cls-3{clip-path:url(#clip-path);}</style><clipPath id="clip-path" transform="translate(0 0)"><rect class="cls-1" x="14.02" width="83.55" height="25.23"/></clipPath></defs><title>LOGO2000</title><g id="Layer_2" data-name="Layer 2"><g id="Layer_1-2" data-name="Layer 1"><path class="cls-2" d="M25.19,20.41c5,0,8.27-3,8.27-7.81s-3.27-7.81-8.27-7.81H19.85V20.41ZM14,0H25.48c8.23,0,13.88,5,13.88,12.6S33.71,25.2,25.48,25.2H14V0Z" transform="translate(0 0)"/><g class="cls-3"><path class="cls-2" d="M56.79,2a.24.24,0,0,1-.06.09L53.07,5.8h0L57,15.33H49l-4.41,4.42H58.79L61,25.2h6.12L56.79,2Z" transform="translate(0 0)"/><polygon class="cls-2" points="82.75 15.3 79.37 18.83 79.37 25.2 73.58 25.2 73.58 0 79.37 0 79.37 11.77 90.53 0 97.03 0 86.58 11.23 97.58 25.23 90.81 25.23 82.75 15.3 82.75 15.3"/></g><path d="M0,43.45a3.51,3.51,0,0,1,3.67-3.56,3.39,3.39,0,0,1,2.56,1l-.47.47a2.77,2.77,0,0,0-2.07-.83,2.9,2.9,0,1,0,0,5.8,2.75,2.75,0,0,0,2.07-.84l.47.47a3.4,3.4,0,0,1-2.57,1A3.51,3.51,0,0,1,0,43.45Z" transform="translate(0 0)"/><path d="M8,43.45a3.52,3.52,0,0,1,3.68-3.56,3.56,3.56,0,1,1,0,7.12A3.52,3.52,0,0,1,8,43.45Zm6.61,0a2.84,2.84,0,0,0-2.93-2.9,2.9,2.9,0,1,0,0,5.8A2.84,2.84,0,0,0,14.65,43.45Z" transform="translate(0 0)"/><path d="M18.79,40.59v2.75h3.62V44H18.79v3h-.74V40h4.8v.64Z" transform="translate(0 0)"/><path d="M26.12,40.59v2.75h3.62V44H26.12v3h-.74V40h4.8v.64Z" transform="translate(0 0)"/><path d="M37.66,46.31V47H32.71V40h4.8v.64H33.45v2.49h3.62v.63H33.45v2.6Z" transform="translate(0 0)"/><path d="M45.35,46.31V47h-5V40h4.8v.64H41.14v2.49h3.62v.63H41.14v2.6Z" transform="translate(0 0)"/><path d="M56.49,47l-1.6-2.25a5,5,0,0,1-.56,0H52.45V47h-.74V40h2.62c1.78,0,2.86.9,2.86,2.4a2.17,2.17,0,0,1-1.6,2.2L57.3,47Zm0-4.6c0-1.12-.74-1.76-2.14-1.76H52.45V44.1h1.86C55.71,44.1,56.45,43.45,56.45,42.35Z" transform="translate(0 0)"/><path d="M59.32,43.45A3.68,3.68,0,1,1,63,47,3.52,3.52,0,0,1,59.32,43.45Zm6.61,0A2.94,2.94,0,1,0,63,46.35,2.84,2.84,0,0,0,65.93,43.45Z" transform="translate(0 0)"/><path d="M73.62,45.08h-3.9L68.88,47h-.77l3.2-7H72l3.2,7h-.78Zm-.27-.6-1.68-3.76L70,44.48Z" transform="translate(0 0)"/><path d="M76.73,46.1l.29-.57a3.44,3.44,0,0,0,2.31.85c1.31,0,1.88-.55,1.88-1.24,0-1.92-4.31-.74-4.31-3.33,0-1,.8-1.92,2.58-1.92a4,4,0,0,1,2.17.62l-.25.59a3.6,3.6,0,0,0-1.92-.58c-1.28,0-1.85.57-1.85,1.27,0,1.92,4.31.76,4.31,3.31,0,1-.82,1.91-2.61,1.91A3.8,3.8,0,0,1,76.73,46.1Z" transform="translate(0 0)"/><path d="M85.81,40.59H83.35V40H89v.64H86.55V47h-.74Z" transform="translate(0 0)"/><path d="M96.14,46.31V47h-5V40H96v.64H91.93v2.49h3.62v.63H91.93v2.6Z" transform="translate(0 0)"/><path d="M103.66,47l-1.6-2.25a5,5,0,0,1-.56,0H99.62V47h-.74V40h2.62c1.78,0,2.86.9,2.86,2.4a2.17,2.17,0,0,1-1.6,2.2l1.71,2.4Zm0-4.6c0-1.12-.74-1.76-2.14-1.76H99.62V44.1h1.86C102.88,44.1,103.62,43.45,103.62,42.35Z" transform="translate(0 0)"/><path d="M106.44,46.1l.29-.57a3.44,3.44,0,0,0,2.31.85c1.31,0,1.88-.55,1.88-1.24,0-1.92-4.31-.74-4.31-3.33,0-1,.8-1.92,2.58-1.92a4,4,0,0,1,2.17.62l-.25.59a3.6,3.6,0,0,0-1.92-.58c-1.28,0-1.85.57-1.85,1.27,0,1.92,4.31.76,4.31,3.31,0,1-.82,1.91-2.61,1.91A3.8,3.8,0,0,1,106.44,46.1Z" transform="translate(0 0)"/></g></g></svg>